<svg width="100" height="100" viewBox="0 0 100 100" fill="none" xmlns="http://www.w3.org/2000/svg">
<path d="M50.0034 0H49.9968C22.3843 0 0 22.3843 0 49.9968V50.0032C0 77.6157 22.3843 100 49.9968 100H50.0034C77.6158 100 100 77.6157 100 50.0032V49.9968C100 22.3843 77.6158 0 50.0034 0Z" fill="white"/>
<path d="M11.3049 70.0549C11.5396 69.7059 11.9152 69.6841 12.4316 69.9895C24.0542 76.2873 37.2854 79.5647 50.7392 79.4784C60.062 79.4573 69.3006 77.8378 77.9911 74.7012C78.2258 74.6139 78.5662 74.4831 79.0121 74.3086C79.4581 74.134 79.775 74.0032 79.9628 73.9159C80.241 73.7749 80.5663 73.7371 80.8733 73.8099C81.1803 73.8827 81.4462 74.0609 81.6176 74.3086C82.0167 74.8321 81.8876 75.312 81.2303 75.7483C80.3853 76.3154 79.3055 76.9698 77.9911 77.7115C73.7642 80.0093 69.2138 81.7493 64.4707 82.8813C59.7175 84.0751 54.8178 84.691 49.8942 84.7137C42.7898 84.7514 35.7417 83.5414 29.1207 81.1471C22.6701 78.8123 16.7291 75.4088 11.5866 71.1019C11.4685 71.0286 11.3694 70.9319 11.2963 70.8188C11.2233 70.7056 11.1781 70.5788 11.1641 70.4475C11.1676 70.3065 11.2166 70.1697 11.3049 70.0549ZM74.1885 71.1674C74.2982 70.973 74.4409 70.7962 74.611 70.6439C75.6373 69.967 76.7804 69.4579 77.9911 69.1387C79.6926 68.7137 81.4411 68.4722 83.202 68.4189C83.6489 68.3741 84.1006 68.3962 84.54 68.4843C86.6525 68.6588 87.9201 68.986 88.3426 69.4659C88.556 69.8254 88.6537 70.2342 88.6242 70.6439V71.1019C88.5449 72.9634 88.0911 74.7946 87.2863 76.5008C86.5028 78.4287 85.2211 80.148 83.5541 81.5071C83.3803 81.6577 83.1572 81.7498 82.9204 81.7688C82.8222 81.7679 82.7257 81.7455 82.6387 81.7034C82.357 81.5725 82.2866 81.3325 82.4274 80.9835C83.764 78.4972 84.6446 75.821 85.0329 73.0652C85.0657 72.6969 84.9667 72.3288 84.7512 72.0181C84.2818 71.4946 82.9673 71.2328 80.8078 71.2328C80.0097 71.2328 79.0708 71.2765 77.9911 71.3637C76.8174 71.4946 75.7377 71.6255 74.7518 71.7564C74.5531 71.7784 74.3526 71.7318 74.1885 71.6255C74.1461 71.596 74.116 71.5539 74.1032 71.5062C74.0904 71.4585 74.0956 71.4082 74.1181 71.3637C74.1266 71.2944 74.1506 71.2276 74.1885 71.1674Z" fill="#FFB200"/>
<path d="M29.5578 53.0391C29.4697 50.1571 30.3426 47.3209 32.0552 44.9246C33.7609 42.6475 36.1332 40.8804 38.8866 39.8359C42.0173 38.6659 45.3043 37.9024 48.6561 37.5666C49.9783 37.429 52.133 37.2457 55.1202 37.0164V35.8474C55.3058 33.8268 54.9525 31.7946 54.0918 29.9335C53.5361 29.2338 52.7998 28.6776 51.9519 28.3168C51.1041 27.956 50.1723 27.8024 49.2438 27.8705H48.6561C47.1429 27.9723 45.6913 28.4729 44.4692 29.3146C43.2818 30.1574 42.4705 31.3825 42.1921 32.7529C42.1631 33.1299 42.0042 33.4879 41.7392 33.7731C41.4743 34.0583 41.1177 34.2553 40.723 34.3345L32.2756 33.3718C31.4431 33.1884 31.0269 32.7758 31.0269 32.134C31.0305 31.9714 31.0552 31.8097 31.1003 31.6526C31.3847 29.8213 32.0779 28.0666 33.1346 26.5026C34.1914 24.9387 35.5881 23.6006 37.2338 22.5754C40.6644 20.5528 44.6047 19.4141 48.6561 19.2746H50.4925C55.2454 19.0072 59.9263 20.4597 63.5676 23.3319C64.0592 23.7924 64.5134 24.2866 64.9265 24.8103C65.2886 25.2602 65.6198 25.731 65.9182 26.2201C66.2214 26.7863 66.4437 27.3874 66.5793 28.008C66.7751 28.7874 66.922 29.326 67.02 29.624C67.161 30.2575 67.2348 30.9024 67.2404 31.5495C67.2893 32.5351 67.3138 33.1197 67.3138 33.303V49.9446C67.2998 51.0547 67.486 52.159 67.8647 53.211C68.1126 53.9644 68.471 54.6818 68.9298 55.3428C69.2726 55.7783 69.8358 56.4774 70.6193 57.4402C70.8773 57.759 71.0305 58.1414 71.06 58.5405C71.0529 58.7335 70.9957 58.9221 70.8934 59.0898C70.791 59.2576 70.6465 59.3994 70.4724 59.5032C66.4079 62.804 64.2042 64.5919 63.8614 64.867C63.5543 65.0713 63.1929 65.1923 62.817 65.2166C62.4411 65.2409 62.0654 65.1675 61.7312 65.0045C61.0456 64.4544 60.4457 63.9272 59.9315 63.4229C59.4174 62.9186 59.0501 62.5519 58.8297 62.3226C58.4489 61.8941 58.0934 61.4464 57.7646 60.9817C57.2749 60.3169 56.9321 59.8699 56.7362 59.6407C54.6111 62.049 51.8141 63.8581 48.6561 64.867C46.6441 65.3662 44.5669 65.5977 42.4859 65.5547C40.7832 65.6131 39.0851 65.3544 37.49 64.7937C35.8949 64.233 34.4346 63.3814 33.1938 62.2882C31.9348 61.0675 30.9613 59.6146 30.3353 58.0222C29.7092 56.4297 29.4444 54.7327 29.5578 53.0391ZM42.1921 51.6638C42.1089 53.2102 42.6167 54.7339 43.6245 55.9617C44.0906 56.4913 44.6812 56.9127 45.3502 57.1931C46.0193 57.4734 46.7485 57.6051 47.4809 57.5777C47.6907 57.5712 47.8995 57.5482 48.1052 57.509C48.2868 57.4733 48.4709 57.4503 48.6561 57.4402C49.69 57.1781 50.6514 56.7108 51.4753 56.0701C52.2991 55.4293 52.966 54.6302 53.4307 53.7268C53.9784 52.8346 54.3865 51.8736 54.6428 50.873C54.8765 50.0517 55.0241 49.2111 55.0835 48.363C55.108 47.7211 55.1202 46.6667 55.1202 45.1997V43.4805C52.9497 43.4177 50.779 43.6024 48.6561 44.0307C46.7715 44.3495 45.0755 45.3004 43.8857 46.7054C42.6958 48.1104 42.0938 49.8732 42.1921 51.6638Z" fill="#1A1E25"/>
</svg>
