<svg width="100" height="100" viewBox="0 0 100 100" fill="none" xmlns="http://www.w3.org/2000/svg">
<path d="M50.0031 0H49.9967C22.3843 0 0 22.3844 0 49.9969V50.0031C0 77.6156 22.3843 100 49.9967 100H50.0031C77.6156 100 99.9998 77.6156 99.9998 50.0031V49.9969C99.9998 22.3844 77.6156 0 50.0031 0Z" fill="#2D76E4"/>
<mask id="mask0_7827_734" style="mask-type:alpha" maskUnits="userSpaceOnUse" x="0" y="0" width="100" height="100">
<path d="M50.0031 0H49.9967C22.3843 0 0 22.3844 0 49.9969V50.0031C0 77.6156 22.3843 100 49.9967 100H50.0031C77.6156 100 99.9998 77.6156 99.9998 50.0031V49.9969C99.9998 22.3844 77.6156 0 50.0031 0Z" fill="#2D76E4"/>
</mask>
<g mask="url(#mask0_7827_734)">
<path d="M67.9005 68.1518L69.8244 53.2413H55.0742V43.7179C55.0742 39.4018 56.2799 36.4582 62.4686 36.4582H70.3632V23.1188C66.5417 22.7132 62.701 22.5163 58.858 22.5289C47.4683 22.5289 39.6763 29.4807 39.6763 42.2493V53.2477H26.7988V68.1582H39.6763V101.462H55.0678V68.1582L67.9005 68.1518Z" fill="white"/>
</g>
</svg>
