<svg width="100" height="100" viewBox="0 0 100 100" fill="none" xmlns="http://www.w3.org/2000/svg">
<path d="M50.0034 2.94487e-07L49.9968 2.94449e-07C22.3843 1.31829e-07 4.57107e-07 22.3843 2.94487e-07 49.9968L2.9445e-07 50.0032C1.3183e-07 77.6157 22.3843 100 49.9968 100L50.0034 100C77.6158 100 100 77.6157 100 50.0032L100 49.9968C100 22.3843 77.6158 4.57107e-07 50.0034 2.94487e-07Z" fill="white"/>
<path d="M31.207 49.996C31.2065 47.9122 31.5421 45.8419 32.201 43.865L21.0678 35.3612C18.838 39.9153 17.6787 44.9189 17.6787 49.9896C17.6787 55.0603 18.838 60.0639 21.0678 64.618L32.1947 56.1013C31.5467 54.131 31.2154 52.0702 31.2133 49.996" fill="#F2BA45"/>
<path d="M50.7544 30.4809C55.1978 30.4712 59.5059 32.0085 62.9394 34.829L72.5591 25.2093C68.7525 21.8553 64.225 19.4223 59.3273 18.0988C54.4296 16.7753 49.293 16.5968 44.3153 17.5771C39.3375 18.5574 34.6521 20.6703 30.6219 23.752C26.5917 26.8336 23.3248 30.8015 21.0742 35.3484L32.2077 43.8522C33.4947 39.9504 35.9818 36.5552 39.3138 34.1515C42.6458 31.7478 46.6521 30.4586 50.7607 30.4681" fill="#DB493C"/>
<path d="M50.7528 69.5112C46.6443 69.5206 42.638 68.2314 39.306 65.8277C35.9739 63.424 33.4866 60.0288 32.1995 56.1271L21.0664 64.6245C23.7952 70.1636 28.0248 74.8249 33.2733 78.0778C38.5217 81.3308 44.5781 83.0445 50.7528 83.0237C58.7169 83.1007 66.4152 80.1611 72.301 74.7956L61.7322 66.6253C58.4182 68.6044 54.6117 69.605 50.7528 69.5112Z" fill="#37A759"/>
<path d="M82.3007 49.996C82.2729 47.971 82.019 45.9554 81.5438 43.9868L50.7607 43.9868L50.7607 56.7491L68.4996 56.7491C68.1184 58.7737 67.3209 60.6969 66.1573 62.397C64.9937 64.0971 63.4894 65.537 61.7401 66.6252L72.3089 74.7956C78.3822 69.1584 82.3326 60.7637 82.3326 49.996" fill="#567BB8"/>
</svg>
