<svg width="100" height="100" viewBox="0 0 100 100" fill="none" xmlns="http://www.w3.org/2000/svg">
<path d="M50.0032 0H49.9968C22.3843 0 0 22.3843 0 49.9968V50.0032C0 77.6157 22.3843 100 49.9968 100H50.0032C77.6157 100 100 77.6157 100 50.0032V49.9968C100 22.3843 77.6157 0 50.0032 0Z" fill="url(#paint0_linear_7827_694)"/>
<path d="M64.1957 18.0723H35.8112C30.8536 18.0757 26.0999 20.0462 22.5938 23.5511C19.0876 27.0561 17.1154 31.8089 17.1104 36.7665V65.1511C17.1154 70.1092 19.0873 74.8629 22.5933 78.3689C26.0993 81.8749 30.853 83.8468 35.8112 83.8519H64.1957C69.1528 83.8451 73.9048 81.8723 77.4093 78.3666C80.9139 74.8608 82.8849 70.1081 82.8899 65.1511V36.7665C82.8848 31.81 80.9136 27.0581 77.4089 23.5533C73.9041 20.0486 69.1522 18.0774 64.1957 18.0723ZM78.0801 65.6513C78.0767 69.2448 76.6481 72.6903 74.1077 75.2319C71.5674 77.7734 68.1225 79.2037 64.5291 79.2088H35.4777C31.8836 79.2037 28.4382 77.7736 25.8968 75.2322C23.3554 72.6908 21.9253 69.2454 21.9202 65.6513V36.5999C21.9253 33.0064 23.3555 29.5616 25.8971 27.0212C28.4387 24.4808 31.8842 23.0523 35.4777 23.0489H64.5291C68.1214 23.054 71.5653 24.4832 74.1055 27.0234C76.6457 29.5636 78.075 33.0075 78.0801 36.5999V65.6513Z" fill="white"/>
<path d="M50.0039 34.3868C46.6934 34.3868 43.4571 35.3685 40.7045 37.2078C37.9519 39.047 35.8066 41.6612 34.5397 44.7197C33.2728 47.7782 32.9414 51.1437 33.5873 54.3906C34.2331 57.6375 35.8272 60.6201 38.1681 62.961C40.509 65.3019 43.4915 66.8959 46.7384 67.5418C49.9853 68.1876 53.3508 67.8563 56.4093 66.5894C59.4679 65.3225 62.0821 63.177 63.9213 60.4244C65.7605 57.6718 66.7422 54.4357 66.7422 51.1252C66.7371 46.6875 64.972 42.433 61.834 39.295C58.6961 36.1571 54.4416 34.3919 50.0039 34.3868ZM50.0039 63.1049C47.6345 63.1049 45.3184 62.4023 43.3484 61.0859C41.3783 59.7696 39.8428 57.8986 38.936 55.7096C38.0293 53.5206 37.7921 51.1119 38.2543 48.7881C38.7166 46.4642 39.8575 44.3296 41.5329 42.6542C43.2083 40.9788 45.3429 39.8379 47.6667 39.3757C49.9906 38.9134 52.3993 39.1506 54.5883 40.0574C56.7773 40.9641 58.6484 42.4995 59.9647 44.4695C61.2811 46.4396 61.9836 48.7558 61.9836 51.1252C61.9802 54.3014 60.717 57.3465 58.4711 59.5924C56.2252 61.8383 53.1801 63.1015 50.0039 63.1049Z" fill="white"/>
<path d="M68.0042 29.667C67.337 29.667 66.6848 29.8648 66.13 30.2355C65.5753 30.6062 65.143 31.133 64.8876 31.7494C64.6323 32.3658 64.5655 33.044 64.6957 33.6984C64.8258 34.3527 65.1471 34.9537 65.6188 35.4255C66.0906 35.8973 66.6918 36.2186 67.3461 36.3488C68.0005 36.479 68.6787 36.4122 69.2951 36.1568C69.9115 35.9015 70.4383 35.469 70.809 34.9143C71.1796 34.3596 71.3775 33.7075 71.3775 33.0403C71.3775 32.5973 71.2902 32.1587 71.1207 31.7494C70.9512 31.3401 70.7026 30.9682 70.3894 30.655C70.0761 30.3417 69.7044 30.0933 69.2951 29.9238C68.8858 29.7542 68.4472 29.667 68.0042 29.667Z" fill="white"/>
<defs>
<linearGradient id="paint0_linear_7827_694" x1="25.0241" y1="6.73379" x2="74.9824" y2="93.2662" gradientUnits="userSpaceOnUse">
<stop stop-color="#474B99"/>
<stop offset="0.18" stop-color="#7B4D97"/>
<stop offset="0.3" stop-color="#9C4E96"/>
<stop offset="0.36" stop-color="#9F4C8F"/>
<stop offset="0.44" stop-color="#A9487D"/>
<stop offset="0.53" stop-color="#B9405E"/>
<stop offset="0.6" stop-color="#C73944"/>
<stop offset="0.88" stop-color="#EFA646"/>
<stop offset="1" stop-color="#F6DD53"/>
</linearGradient>
</defs>
</svg>
