<svg width="100" height="100" viewBox="0 0 100 100" fill="none" xmlns="http://www.w3.org/2000/svg">
<path d="M50.0034 2.94487e-07L49.9968 2.94449e-07C22.3843 1.31829e-07 4.57107e-07 22.3843 2.94487e-07 49.9968L2.9445e-07 50.0032C1.3183e-07 77.6157 22.3843 100 49.9968 100L50.0034 100C77.6158 100 100 77.6157 100 50.0032L100 49.9968C100 22.3843 77.6158 4.57107e-07 50.0034 2.94487e-07Z" fill="black"/>
<path fill-rule="evenodd" clip-rule="evenodd" d="M28.3466 76.099C14.7828 64.3245 23.5496 38.1268 44.3794 41.4231L44.3794 43.8473C26.7946 43.0264 19.0411 64.0359 28.3466 76.099ZM66.3764 30.6426C68.5184 32.3549 71.5071 33.6183 75.5473 33.8492L75.5473 36.2669C73.7221 35.9846 71.9713 35.3419 70.3968 34.3763C68.8223 33.4107 67.4555 32.1415 66.3764 30.6426ZM60.7201 18.1241C60.7346 19.0231 60.8204 19.9194 60.9766 20.8048L52.6395 20.8048L52.6395 62.1888C52.6614 63.9065 52.4632 65.6201 52.0495 67.2873C48.6634 74.7522 39.0821 73.7774 36.4335 68.6533C37.5355 69.3437 38.7736 69.7884 40.0631 69.9569C41.3526 70.1254 42.6632 70.0138 43.9057 69.6296C45.1481 69.2455 46.2928 68.5979 47.2622 67.7311C48.2316 66.8642 49.0028 65.7985 49.5228 64.6065C49.9337 62.928 50.1296 61.204 50.1062 59.476L50.1062 18.092L60.7201 18.1241Z" fill="#00F7EF"/>
<path fill-rule="evenodd" clip-rule="evenodd" d="M63.2533 20.8051L63.2533 20.8564C63.2533 21.8184 63.542 35.6707 78.0805 36.5365C78.0805 49.4269 78.0805 36.5366 78.0805 47.2466C76.9903 47.3107 68.5122 46.6949 63.2342 41.9877L63.2342 62.8304C63.3689 72.2705 58.1038 81.5247 48.2789 83.3909C45.5212 83.9104 43.0392 83.9681 38.8771 83.0574C14.8792 75.8811 22.8443 40.2946 46.9449 44.104C46.9449 55.59 46.9449 44.104 46.9449 55.5899C36.9981 54.1277 33.6632 62.4071 36.3119 68.3329C38.7168 73.7327 48.625 74.9064 52.0817 67.2876C52.4953 65.6203 52.6936 63.9067 52.6716 62.189L52.6716 20.8051L63.2533 20.8051Z" fill="white"/>
<path fill-rule="evenodd" clip-rule="evenodd" d="M44.4041 43.847C45.2506 43.8835 46.0942 43.9691 46.9308 44.1034C46.9308 55.5894 46.9308 44.1034 46.9308 55.5893C36.984 54.1271 33.6492 62.4065 36.2978 68.3323C36.3427 68.4413 36.4005 68.5503 36.4519 68.6529C35.276 67.9439 34.3397 66.8984 33.7645 65.6516C31.1223 59.7259 34.4443 51.4465 44.3975 52.9086L44.4041 43.847ZM75.5463 36.2666C76.3834 36.4208 77.2294 36.5215 78.0793 36.568C78.0793 49.4584 78.0793 36.568 78.0793 47.2779C76.9891 47.342 68.511 46.7264 63.233 42.0192L63.233 62.8618C63.3676 72.302 58.1026 81.5562 48.2776 83.4224C45.52 83.9419 43.038 83.9996 38.8759 83.0889C34.7194 81.9467 31.0353 79.5092 28.3584 76.1306C30.6844 78.111 33.4064 79.5717 36.3426 80.4147C40.5047 81.3189 42.9867 81.2612 45.7443 80.7418C55.5757 78.8755 60.8345 69.6213 60.7062 60.1876L60.7062 39.3385C65.9778 44.0457 74.4623 44.6614 75.5526 44.5908C75.5526 34.6184 75.5463 45.0269 75.5463 36.2666ZM63.2521 20.8365L63.2521 20.8879C63.3354 24.3817 64.4194 27.7782 66.3753 30.6744C62.7391 27.7628 61.4373 23.5557 60.9755 20.8365L63.2521 20.8365Z" fill="#FF004F"/>
</svg>
