<svg width="100" height="100" viewBox="0 0 100 100" fill="none" xmlns="http://www.w3.org/2000/svg">
<path d="M12.961 67.2496C13.1858 66.9155 13.5454 66.8946 14.0398 67.187C25.1683 73.2171 37.8369 76.3551 50.7186 76.2725C59.6451 76.2523 68.4909 74.7016 76.8119 71.6984C77.0366 71.6148 77.3625 71.4895 77.7895 71.3224C78.2165 71.1554 78.5199 71.03 78.6997 70.9465C78.9661 70.8115 79.2776 70.7752 79.5715 70.845C79.8655 70.9147 80.1201 71.0853 80.2842 71.3224C80.6663 71.8237 80.5427 72.2832 79.9134 72.7009C79.1043 73.244 78.0704 73.8706 76.8119 74.5807C72.7647 76.7808 68.4077 78.4468 63.8664 79.5307C59.3153 80.6737 54.6239 81.2635 49.9096 81.2851C43.1072 81.3213 36.3588 80.1627 30.0194 77.8703C23.843 75.6347 18.1546 72.3759 13.2307 68.2522C13.1177 68.182 13.0228 68.0894 12.9528 67.981C12.8829 67.8727 12.8396 67.7513 12.8262 67.6256C12.8295 67.4905 12.8765 67.3596 12.961 67.2496ZM73.1709 68.3148C73.276 68.1287 73.4126 67.9594 73.5755 67.8136C74.5581 67.1655 75.6527 66.6781 76.8119 66.3724C78.441 65.9655 80.1152 65.7342 81.8013 65.6832C82.2291 65.6403 82.6616 65.6615 83.0823 65.7458C85.105 65.9129 86.3187 66.2262 86.7232 66.6857C86.9276 67.0299 87.0212 67.4214 86.9929 67.8136V68.2522C86.9169 70.0345 86.4824 71.7878 85.7119 73.4215C84.9617 75.2674 83.7345 76.9136 82.1384 78.2149C81.9719 78.3591 81.7583 78.4473 81.5316 78.4655C81.4376 78.4646 81.3452 78.4431 81.2619 78.4029C80.9922 78.2775 80.9247 78.0478 81.0596 77.7136C82.3394 75.333 83.1825 72.7706 83.5543 70.1319C83.5857 69.7793 83.4909 69.4268 83.2846 69.1294C82.8351 68.6281 81.5765 68.3775 79.5088 68.3775C78.7447 68.3775 77.8457 68.4193 76.8119 68.5028C75.6881 68.6281 74.6543 68.7534 73.7103 68.8788C73.5201 68.8999 73.3281 68.8553 73.1709 68.7534C73.1304 68.7252 73.1016 68.6849 73.0893 68.6393C73.077 68.5936 73.082 68.5454 73.1035 68.5028C73.1117 68.4365 73.1347 68.3725 73.1709 68.3148Z" fill="white"/>
<path d="M30.4385 50.9573C30.3542 48.1978 31.19 45.4822 32.8298 43.1878C34.463 41.0075 36.7344 39.3155 39.3707 38.3154C42.3683 37.1952 45.5156 36.4641 48.7249 36.1426C49.9909 36.0109 52.0539 35.8354 54.9141 35.6159V34.4965C55.0918 32.5618 54.7535 30.6161 53.9295 28.834C53.3973 28.1641 52.6924 27.6315 51.8805 27.2861C51.0687 26.9406 50.1766 26.7936 49.2875 26.8588H48.7249C47.276 26.9562 45.8861 27.4356 44.7159 28.2415C43.5791 29.0485 42.8022 30.2215 42.5356 31.5336C42.5079 31.8946 42.3557 32.2373 42.1021 32.5104C41.8484 32.7835 41.507 32.9721 41.129 33.048L33.0408 32.1262C32.2437 31.9506 31.8451 31.5556 31.8451 30.941C31.8487 30.7853 31.8723 30.6305 31.9155 30.4801C32.1878 28.7267 32.8515 27.0465 33.8633 25.5491C34.8751 24.0516 36.2125 22.7704 37.7882 21.7888C41.0729 19.8522 44.8457 18.762 48.7249 18.6284H50.4832C55.034 18.3723 59.5159 19.7631 63.0023 22.5131C63.473 22.9541 63.9079 23.4273 64.3035 23.9287C64.6501 24.3594 64.9672 24.8103 65.2529 25.2785C65.5433 25.8207 65.7561 26.3963 65.8859 26.9904C66.0735 27.7367 66.2141 28.2524 66.3079 28.5378C66.443 29.1443 66.5136 29.7618 66.5189 30.3814C66.5658 31.3251 66.5893 31.8848 66.5893 32.0604V47.9944C66.5758 49.0572 66.7541 50.1146 67.1167 51.1219C67.354 51.8432 67.6973 52.5302 68.1366 53.163C68.4648 53.58 69.004 54.2494 69.7542 55.1712C70.0012 55.4766 70.1479 55.8426 70.1762 56.2247C70.1694 56.4096 70.1146 56.5901 70.0166 56.7507C69.9186 56.9114 69.7802 57.0472 69.6135 57.1465C65.7218 60.307 63.6119 62.0189 63.2836 62.2823C62.9896 62.4779 62.6435 62.5938 62.2836 62.617C61.9237 62.6403 61.564 62.57 61.244 62.414C60.5876 61.8872 60.0132 61.3824 59.5209 60.8996C59.0285 60.4167 58.6769 60.0656 58.4659 59.8461C58.1013 59.4358 57.7609 59.0071 57.4461 58.5622C56.9772 57.9257 56.649 57.4977 56.4614 57.2782C54.4267 59.5841 51.7485 61.3163 48.7249 62.2823C46.7983 62.7603 44.8095 62.9819 42.817 62.9407C41.1867 62.9966 39.5607 62.749 38.0335 62.2121C36.5062 61.6752 35.108 60.8598 33.9199 59.8132C32.7145 58.6443 31.7824 57.2532 31.1829 55.7285C30.5835 54.2038 30.33 52.5788 30.4385 50.9573ZM42.5356 49.6404C42.456 51.1211 42.9422 52.58 43.9071 53.7556C44.3534 54.2627 44.919 54.6662 45.5595 54.9346C46.2001 55.203 46.8983 55.3291 47.5996 55.3029C47.8004 55.2967 48.0004 55.2746 48.1974 55.2371C48.3712 55.203 48.5476 55.181 48.7249 55.1712C49.7147 54.9203 50.6353 54.4729 51.4241 53.8594C52.2129 53.2459 52.8515 52.4807 53.2965 51.6157C53.8208 50.7615 54.2116 49.8413 54.457 48.8832C54.6808 48.0969 54.8221 47.292 54.8789 46.48C54.9024 45.8654 54.9141 44.8558 54.9141 43.4512V41.8051C52.8358 41.745 50.7575 41.9219 48.7249 42.3319C46.9203 42.6371 45.2965 43.5476 44.1572 44.8929C43.018 46.2381 42.4415 47.926 42.5356 49.6404Z" fill="white"/>
</svg>
