<svg width="100" height="100" viewBox="0 0 100 100" fill="none" xmlns="http://www.w3.org/2000/svg">
<path d="M31.2077 49.9957C31.2108 47.9122 31.5462 45.8425 32.2016 43.8647L21.0685 35.3673C18.8382 39.9201 17.6787 44.9227 17.6787 49.9924C17.6787 55.0622 18.8382 60.0647 21.0685 64.6175L32.1953 56.101C31.5468 54.1308 31.2154 52.07 31.2139 49.9957" fill="white"/>
<path d="M50.7563 30.4806C55.2007 30.4716 59.5093 32.0114 62.9413 34.8351L72.561 25.2154C68.754 21.8616 64.2263 19.4291 59.3283 18.1061C54.4303 16.7831 49.2932 16.6051 44.3153 17.586C39.3375 18.567 34.6525 20.6804 30.6226 23.7627C26.5927 26.8451 23.3261 30.8137 21.0762 35.361L32.2096 43.8584C33.4966 39.9567 35.9837 36.5615 39.3157 34.1578C42.6477 31.7541 46.6541 30.4647 50.7626 30.4741" fill="white"/>
<path d="M50.7519 69.511C46.6433 69.5204 42.6367 68.2312 39.3047 65.8275C35.9726 63.4238 33.4856 60.0285 32.1985 56.1267L21.0654 64.6241C23.7949 70.1627 28.0243 74.8238 33.2726 78.0767C38.5209 81.3295 44.5773 83.0435 50.7519 83.0235C58.7165 83.1037 66.4156 80.1637 72.2998 74.7954L61.7375 66.6187C58.4213 68.598 54.6127 69.5985 50.7519 69.5046" fill="white"/>
<path d="M82.3267 49.9957C82.2984 47.9733 82.0468 45.9601 81.5765 43.9929H50.7549V56.7552H68.4934C68.1121 58.7781 67.3151 60.6998 66.1527 62.3987C64.9903 64.0977 63.4879 65.5367 61.7405 66.6249L72.3028 74.7952C78.376 69.1581 82.3267 60.7633 82.3267 49.9957Z" fill="white"/>
</svg>
