<svg width="100" height="100" viewBox="0 0 100 100" fill="none" xmlns="http://www.w3.org/2000/svg">
<path d="M44.3154 17.5863C49.2932 16.6054 54.4302 16.7829 59.3281 18.1058C64.226 19.4288 68.7537 21.8616 72.5605 25.2152L62.9414 34.8353C59.6167 32.0999 55.4693 30.5687 51.1729 30.4838L50.7627 30.474C46.6542 30.4646 42.6474 31.7539 39.3154 34.1576C36.1006 36.4768 33.6724 39.7191 32.3496 43.4486L32.0322 44.4008C31.5257 46.0903 31.2498 47.8409 31.2119 49.6049L31.2139 49.9955C31.2153 51.9401 31.5063 53.8733 32.0771 55.7308L32.4053 56.7172C33.7418 60.3706 36.142 63.546 39.3047 65.8275C42.5326 68.1561 46.3937 69.4389 50.3672 69.5082L50.752 69.5043C54.34 69.5915 57.8819 68.7322 61.0264 67.0219L61 67.0004L61.5566 66.7211C61.6164 66.6862 61.6778 66.654 61.7373 66.6185L61.7432 66.6224C63.4892 65.5345 64.9906 64.0967 66.1523 62.3988C67.3147 60.6999 68.1119 58.7781 68.4932 56.7552H50.7549V43.9926H81.5762C82.0465 45.9597 82.2988 47.9731 82.3271 49.9955C82.3271 60.7631 78.376 69.1581 72.3027 74.7953L72.2471 74.7523L72.2461 74.7533L72.2998 74.7953C72.0421 75.0304 71.7792 75.259 71.5146 75.4847L71.5 75.5004L71.498 75.4984C65.7249 80.4182 58.3605 83.1003 50.752 83.0238C44.5774 83.0438 38.5208 81.3294 33.2725 78.0765C28.3008 74.9951 24.2448 70.6492 21.5107 65.4916L21.5 65.5004L20.5 63.5004L20.5371 63.473C18.6558 59.2323 17.6787 54.6412 17.6787 49.9926C17.6787 45.3479 18.6541 40.7605 20.5322 36.5228L20.5 36.5004L21.5 34.5004L21.5117 34.5092C23.7391 30.3172 26.8467 26.6515 30.623 23.7631C34.6529 20.6808 39.3377 18.5672 44.3154 17.5863Z" fill="white"/>
</svg>
