<svg width="100" height="100" viewBox="0 0 100 100" fill="none" xmlns="http://www.w3.org/2000/svg">
<path d="M64.1918 16.5515H35.8329C30.8759 16.5549 26.123 18.5256 22.6179 22.0307C19.1127 25.5358 17.1421 30.2889 17.1387 35.2459V63.6305C17.1421 68.5875 19.1127 73.3404 22.6179 76.8455C26.123 80.3506 30.8759 82.3213 35.8329 82.3247H64.2175C69.175 82.3213 73.9287 80.3509 77.4348 76.846C80.941 73.341 82.913 68.588 82.9181 63.6305V35.2459C82.913 30.2839 80.9375 25.527 77.4258 22.0213C73.9141 18.5156 69.1538 16.5481 64.1918 16.5515ZM78.0826 64.1307C78.0775 67.7242 76.6474 71.1689 74.1058 73.7092C71.5643 76.2496 68.1188 77.6782 64.5253 77.6816H35.4737C31.8802 77.6782 28.4349 76.2496 25.8933 73.7092C23.3517 71.1689 21.9215 67.7242 21.9164 64.1307V35.0792C21.9215 31.4851 23.3515 28.0397 25.8929 25.4983C28.4343 22.9569 31.8797 21.5268 35.4737 21.5217H64.5253C68.1194 21.5268 71.5648 22.9569 74.1062 25.4983C76.6475 28.0397 78.0775 31.4851 78.0826 35.0792V64.1307Z" fill="white"/>
<path d="M49.9952 32.8671C46.6847 32.8671 43.4484 33.8486 40.6958 35.6878C37.9432 37.5271 35.7979 40.1413 34.531 43.1998C33.2641 46.2583 32.9326 49.6238 33.5784 52.8707C34.2243 56.1176 35.8185 59.1002 38.1594 61.4411C40.5003 63.782 43.4827 65.3762 46.7296 66.022C49.9765 66.6679 53.3421 66.3363 56.4007 65.0694C59.4592 63.8026 62.0732 61.6572 63.9125 58.9046C65.7517 56.152 66.7334 52.9158 66.7334 49.6053C66.7283 45.1676 64.9632 40.913 61.8252 37.7751C58.6873 34.6372 54.4329 32.8722 49.9952 32.8671ZM49.9952 61.585C47.6258 61.585 45.3096 60.8825 43.3395 59.5661C41.3695 58.2498 39.8341 56.3787 38.9274 54.1897C38.0207 52.0006 37.7834 49.592 38.2457 47.2681C38.7079 44.9443 39.8489 42.8097 41.5243 41.1343C43.1997 39.4589 45.3342 38.318 47.6581 37.8557C49.9819 37.3935 52.3906 37.6307 54.5796 38.5374C56.7686 39.4441 58.6396 40.9797 59.9559 42.9498C61.2723 44.9198 61.9749 47.2359 61.9749 49.6053C61.9715 52.7814 60.7083 55.8265 58.4624 58.0724C56.2165 60.3184 53.1714 61.5816 49.9952 61.585Z" fill="white"/>
<path d="M68.0077 28.14C67.3402 28.1388 66.6874 28.3355 66.1318 28.7054C65.5762 29.0753 65.1429 29.6017 64.8866 30.218C64.6303 30.8343 64.5625 31.5127 64.692 32.1675C64.8214 32.8223 65.1422 33.4239 65.6137 33.8963C66.0852 34.3688 66.6863 34.6907 67.3408 34.8214C67.9954 34.952 68.674 34.8856 69.2908 34.6305C69.9075 34.3754 70.4346 33.943 70.8056 33.3881C71.1765 32.8332 71.3746 32.1808 71.3746 31.5133C71.3729 30.6203 71.0179 29.7643 70.3871 29.1322C69.7562 28.5001 68.9007 28.1434 68.0077 28.14Z" fill="white"/>
</svg>
