<svg width="100" height="100" viewBox="0 0 100 100" fill="none" xmlns="http://www.w3.org/2000/svg">
<path d="M20.2412 72.8852L20.4592 73.5265C20.4335 73.4432 20.3502 73.2251 20.2412 72.8852ZM29.0784 58.6031C29.4696 55.217 30.81 53.3187 33.3111 51.3755C36.9089 48.7461 41.3852 50.234 41.3852 50.234V41.3967C42.4751 41.3655 43.5657 41.4342 44.6431 41.6019V52.966C44.6431 52.966 40.154 51.4846 36.569 54.114C34.0615 56.0379 32.7212 57.9618 32.33 61.3416C32.2453 63.5907 32.8908 65.8069 34.1704 67.6586C33.7856 67.4534 33.4075 67.2224 33.0099 66.9659C29.675 64.6251 29.0656 61.0979 29.0784 58.6031ZM63.1707 25.056C61.2325 22.8879 59.9358 20.2233 59.4255 17.3602H62.5294C62.5294 17.3602 61.9202 22.6126 66.4286 27.7752L66.4928 27.8394C65.2713 27.0496 64.155 26.1078 63.1707 25.0367V25.056ZM78.1326 33.0596V44.1736C75.809 44.0688 73.4994 43.7555 71.2319 43.2373C68.872 42.6328 66.6079 41.7025 64.5047 40.4732C64.5047 40.4732 62.6833 39.2739 62.5422 39.1906V62.201C62.4658 64.641 62.007 67.0538 61.1826 69.3516C59.2257 74.4111 55.3782 78.5115 50.4534 80.7862C47.7729 82.0224 44.8565 82.6634 41.9047 82.6653C37.8047 82.6576 33.795 81.4613 30.361 79.2213C29.1786 78.4046 28.0752 77.4793 27.0649 76.4574C30.4943 78.7072 34.507 79.9042 38.6085 79.9012C41.5625 79.9002 44.4811 79.2592 47.1636 78.0221C52.0848 75.7424 55.9306 71.6437 57.8927 66.5875C58.7176 64.2898 59.1765 61.8769 59.2524 59.4369V36.4778C59.3999 36.5612 61.2148 37.7605 61.2148 37.7605C63.3154 38.9906 65.5776 39.9209 67.9358 40.5246C70.2054 41.0429 72.517 41.3563 74.8428 41.4608V32.7389C75.916 33.0167 77.026 33.1248 78.1326 33.0596Z" fill="white"/>
<path d="M74.8672 32.7307V41.459C72.5415 41.3545 70.2299 41.0411 67.9602 40.5227C65.6043 39.9186 63.3441 38.9882 61.2456 37.7586L59.2831 36.476V59.4863C59.2072 61.9263 58.7483 64.3394 57.9234 66.637C55.9613 71.6932 52.1155 75.792 47.1943 78.0717C44.5118 79.3087 41.5932 79.9497 38.6392 79.9507C34.5394 79.9427 30.5297 78.7464 27.0956 76.5068C26.5228 75.9222 25.9813 75.3079 25.4732 74.6663C24.1879 72.9617 23.1513 71.0831 22.3947 69.0869C21.5775 66.6925 21.17 64.1775 21.1891 61.6476C21.2462 58.3525 22.0998 55.1202 23.6773 52.2267C24.9348 49.9926 26.571 47.9941 28.5129 46.3202C30.2338 44.8717 32.1846 43.7207 34.2847 42.9148C36.5436 41.9628 38.9651 41.4554 41.4162 41.4205V50.2514C41.4162 50.2514 36.9271 48.77 33.3421 51.3994C30.841 53.3233 29.4942 55.2473 29.1094 58.627C29.1094 61.1217 29.7056 64.649 33.0597 67.0026C33.4488 67.2591 33.8337 67.4899 34.2142 67.6951C34.8022 68.4904 35.5147 69.1855 36.3242 69.7537C39.6077 71.9149 42.346 72.069 45.854 70.6645C47.0072 70.1587 48.0409 69.4159 48.8884 68.4845C49.7358 67.5531 50.3779 66.4538 50.7729 65.2581C51.1975 63.8018 51.3669 62.2829 51.2733 60.7689V17.3905H59.4434C59.9482 20.2553 61.2456 22.9214 63.1886 25.0863C64.1784 26.1515 65.294 27.0927 66.5107 27.8889C68.7393 30.3372 71.6685 32.039 74.8992 32.7628L74.8672 32.7307Z" fill="white"/>
</svg>
