<svg width="100" height="100" viewBox="0 0 100 100" fill="none" xmlns="http://www.w3.org/2000/svg">
<path d="M62.5283 17.3604C62.5245 17.3934 61.9336 22.6291 66.4277 27.7754L66.4922 27.8389C66.3725 27.7615 66.2544 27.6818 66.1367 27.6016L66.1699 27.6582C66.2829 27.7359 66.396 27.8136 66.5107 27.8887C68.3378 29.8958 70.6358 31.4002 73.1846 32.2764L74.0791 32.5L75.8848 32.9512C76.6271 33.0657 77.38 33.1039 78.1318 33.0596V44.1738C75.8083 44.0691 73.4988 43.7555 71.2314 43.2373C68.8716 42.6328 66.6071 41.7029 64.5039 40.4736C64.5039 40.4736 62.6821 39.2738 62.541 39.1904V62.2012C62.4646 64.6411 62.006 67.0539 61.1816 69.3516C59.2248 74.4109 55.3777 78.5114 50.4531 80.7861C47.7727 82.0222 44.856 82.6631 41.9043 82.665C37.8045 82.6574 33.7943 81.4615 30.3604 79.2217C29.2416 78.4489 28.1949 77.5772 27.2295 76.6201L27.0791 76.5L27.0762 76.4863C26.5106 75.9077 25.975 75.3003 25.4727 74.666C24.1875 72.9615 23.1511 71.083 22.3945 69.0869C21.5773 66.6926 21.1693 64.1774 21.1885 61.6475C21.2455 58.3524 22.0993 55.12 23.6768 52.2266C24.9342 49.9925 26.5708 47.9941 28.5127 46.3203C30.2335 44.8718 32.1842 43.7209 34.2842 42.915C36.5336 41.967 38.9443 41.4596 41.3848 41.4209V41.3965C42.4746 41.3654 43.5653 41.4339 44.6426 41.6016V52.9658C44.6426 52.9658 40.1533 51.4849 36.5684 54.1143C34.0609 56.0382 32.7203 57.9621 32.3291 61.3418C32.2471 63.5189 32.8515 65.6639 34.0508 67.4785L34.0791 67.5L34.0693 67.5068C34.1029 67.5572 34.1355 67.6083 34.1699 67.6582C34.1136 67.6282 34.058 67.5965 34.002 67.5654L33.9941 67.5732C34.0677 67.6146 34.1407 67.6558 34.2139 67.6953C34.8018 68.4905 35.5148 69.1857 36.3242 69.7539C39.6076 71.9149 42.3457 72.0685 45.8535 70.6641C47.0067 70.1583 48.0403 69.4157 48.8877 68.4844C49.7351 67.553 50.3775 66.4535 50.7725 65.2578C51.197 63.8016 51.3661 62.2825 51.2725 60.7686V17.3906H59.4307C59.4288 17.3805 59.4266 17.3705 59.4248 17.3604H62.5283Z" fill="white"/>
</svg>
